<mxfile host="Electron" modified="2023-10-27T06:58:05.483Z" agent="Mozilla/5.0 (Windows NT 10.0; Win64; x64) AppleWebKit/537.36 (KHTML, like Gecko) draw.io/21.4.0 Chrome/112.0.5615.204 Electron/24.5.1 Safari/537.36" etag="cg_T6J1D4BXfLLoYS1jo" version="21.4.0" type="device">
  <diagram id="TnlvWBoH-OD1_KwAXw3C" name="第 3 页">
    <mxGraphModel dx="1709" dy="1009" grid="0" gridSize="10" guides="1" tooltips="1" connect="1" arrows="1" fold="1" page="0" pageScale="1" pageWidth="827" pageHeight="1169" math="0" shadow="0">
      <root>
        <mxCell id="0" />
        <mxCell id="1" parent="0" />
        <mxCell id="uR3A5j1ukMdwhLeREXGZ-2" value="以CD控制行为" style="swimlane;whiteSpace=wrap;html=1;" parent="1" vertex="1">
          <mxGeometry x="30" y="20" width="1222" height="339" as="geometry" />
        </mxCell>
        <mxCell id="uR3A5j1ukMdwhLeREXGZ-8" style="edgeStyle=orthogonalEdgeStyle;rounded=0;orthogonalLoop=1;jettySize=auto;html=1;exitX=0.5;exitY=1;exitDx=0;exitDy=0;entryX=0.5;entryY=0;entryDx=0;entryDy=0;" parent="uR3A5j1ukMdwhLeREXGZ-2" source="uR3A5j1ukMdwhLeREXGZ-3" target="uR3A5j1ukMdwhLeREXGZ-4" edge="1">
          <mxGeometry relative="1" as="geometry" />
        </mxCell>
        <mxCell id="uR3A5j1ukMdwhLeREXGZ-3" value="战斗逻辑" style="rounded=0;whiteSpace=wrap;html=1;" parent="uR3A5j1ukMdwhLeREXGZ-2" vertex="1">
          <mxGeometry x="336" y="40" width="96" height="40" as="geometry" />
        </mxCell>
        <mxCell id="uR3A5j1ukMdwhLeREXGZ-9" style="edgeStyle=orthogonalEdgeStyle;rounded=0;orthogonalLoop=1;jettySize=auto;html=1;exitX=0.5;exitY=1;exitDx=0;exitDy=0;entryX=0.5;entryY=0;entryDx=0;entryDy=0;" parent="uR3A5j1ukMdwhLeREXGZ-2" source="uR3A5j1ukMdwhLeREXGZ-4" target="uR3A5j1ukMdwhLeREXGZ-5" edge="1">
          <mxGeometry relative="1" as="geometry">
            <Array as="points">
              <mxPoint x="384" y="160" />
              <mxPoint x="128" y="160" />
            </Array>
          </mxGeometry>
        </mxCell>
        <mxCell id="uR3A5j1ukMdwhLeREXGZ-22" style="edgeStyle=orthogonalEdgeStyle;rounded=0;orthogonalLoop=1;jettySize=auto;html=1;exitX=0.5;exitY=1;exitDx=0;exitDy=0;" parent="uR3A5j1ukMdwhLeREXGZ-2" source="uR3A5j1ukMdwhLeREXGZ-4" target="uR3A5j1ukMdwhLeREXGZ-14" edge="1">
          <mxGeometry relative="1" as="geometry" />
        </mxCell>
        <mxCell id="uR3A5j1ukMdwhLeREXGZ-23" style="edgeStyle=orthogonalEdgeStyle;rounded=0;orthogonalLoop=1;jettySize=auto;html=1;exitX=0.5;exitY=1;exitDx=0;exitDy=0;entryX=0.5;entryY=0;entryDx=0;entryDy=0;" parent="uR3A5j1ukMdwhLeREXGZ-2" source="uR3A5j1ukMdwhLeREXGZ-4" target="uR3A5j1ukMdwhLeREXGZ-17" edge="1">
          <mxGeometry relative="1" as="geometry" />
        </mxCell>
        <mxCell id="YEO7ucCBVxBHJjsweA6i-4" style="edgeStyle=orthogonalEdgeStyle;rounded=0;orthogonalLoop=1;jettySize=auto;html=1;entryX=0.5;entryY=0;entryDx=0;entryDy=0;" edge="1" parent="uR3A5j1ukMdwhLeREXGZ-2" source="uR3A5j1ukMdwhLeREXGZ-4" target="YEO7ucCBVxBHJjsweA6i-1">
          <mxGeometry relative="1" as="geometry">
            <Array as="points">
              <mxPoint x="384" y="160" />
              <mxPoint x="879" y="160" />
            </Array>
          </mxGeometry>
        </mxCell>
        <mxCell id="YEO7ucCBVxBHJjsweA6i-9" style="edgeStyle=orthogonalEdgeStyle;rounded=0;orthogonalLoop=1;jettySize=auto;html=1;exitX=0.5;exitY=1;exitDx=0;exitDy=0;" edge="1" parent="uR3A5j1ukMdwhLeREXGZ-2" source="uR3A5j1ukMdwhLeREXGZ-4" target="YEO7ucCBVxBHJjsweA6i-8">
          <mxGeometry relative="1" as="geometry" />
        </mxCell>
        <mxCell id="uR3A5j1ukMdwhLeREXGZ-4" value="或" style="rounded=0;whiteSpace=wrap;html=1;" parent="uR3A5j1ukMdwhLeREXGZ-2" vertex="1">
          <mxGeometry x="336" y="100" width="96" height="40" as="geometry" />
        </mxCell>
        <mxCell id="uR3A5j1ukMdwhLeREXGZ-10" style="edgeStyle=orthogonalEdgeStyle;rounded=0;orthogonalLoop=1;jettySize=auto;html=1;exitX=0.5;exitY=1;exitDx=0;exitDy=0;entryX=0.5;entryY=0;entryDx=0;entryDy=0;" parent="uR3A5j1ukMdwhLeREXGZ-2" source="uR3A5j1ukMdwhLeREXGZ-5" target="uR3A5j1ukMdwhLeREXGZ-6" edge="1">
          <mxGeometry relative="1" as="geometry" />
        </mxCell>
        <mxCell id="uR3A5j1ukMdwhLeREXGZ-11" style="edgeStyle=orthogonalEdgeStyle;rounded=0;orthogonalLoop=1;jettySize=auto;html=1;exitX=0.5;exitY=1;exitDx=0;exitDy=0;entryX=0.5;entryY=0;entryDx=0;entryDy=0;" parent="uR3A5j1ukMdwhLeREXGZ-2" source="uR3A5j1ukMdwhLeREXGZ-5" target="uR3A5j1ukMdwhLeREXGZ-7" edge="1">
          <mxGeometry relative="1" as="geometry" />
        </mxCell>
        <mxCell id="uR3A5j1ukMdwhLeREXGZ-5" value="与" style="rounded=0;whiteSpace=wrap;html=1;fillColor=#d5e8d4;strokeColor=#82b366;" parent="uR3A5j1ukMdwhLeREXGZ-2" vertex="1">
          <mxGeometry x="80" y="180" width="96" height="40" as="geometry" />
        </mxCell>
        <mxCell id="uR3A5j1ukMdwhLeREXGZ-6" value="随机 CD" style="rounded=0;whiteSpace=wrap;html=1;fillColor=#d5e8d4;strokeColor=#82b366;" parent="uR3A5j1ukMdwhLeREXGZ-2" vertex="1">
          <mxGeometry x="30" y="260" width="96" height="40" as="geometry" />
        </mxCell>
        <mxCell id="uR3A5j1ukMdwhLeREXGZ-7" value="空窗期&lt;br&gt;四方向闪避" style="rounded=0;whiteSpace=wrap;html=1;fillColor=#d5e8d4;strokeColor=#82b366;" parent="uR3A5j1ukMdwhLeREXGZ-2" vertex="1">
          <mxGeometry x="140" y="260" width="96" height="40" as="geometry" />
        </mxCell>
        <mxCell id="uR3A5j1ukMdwhLeREXGZ-14" value="与" style="rounded=0;whiteSpace=wrap;html=1;fillColor=#dae8fc;strokeColor=#6c8ebf;" parent="uR3A5j1ukMdwhLeREXGZ-2" vertex="1">
          <mxGeometry x="335.5" y="180" width="96" height="40" as="geometry" />
        </mxCell>
        <mxCell id="uR3A5j1ukMdwhLeREXGZ-15" value="CD A秒" style="rounded=0;whiteSpace=wrap;html=1;fillColor=#dae8fc;strokeColor=#6c8ebf;" parent="uR3A5j1ukMdwhLeREXGZ-2" vertex="1">
          <mxGeometry x="281" y="260" width="96" height="40" as="geometry" />
        </mxCell>
        <mxCell id="uR3A5j1ukMdwhLeREXGZ-12" style="edgeStyle=orthogonalEdgeStyle;rounded=0;orthogonalLoop=1;jettySize=auto;html=1;exitX=0.5;exitY=1;exitDx=0;exitDy=0;entryX=0.5;entryY=0;entryDx=0;entryDy=0;" parent="uR3A5j1ukMdwhLeREXGZ-2" source="uR3A5j1ukMdwhLeREXGZ-14" target="uR3A5j1ukMdwhLeREXGZ-15" edge="1">
          <mxGeometry relative="1" as="geometry" />
        </mxCell>
        <mxCell id="uR3A5j1ukMdwhLeREXGZ-16" value="招式A" style="rounded=0;whiteSpace=wrap;html=1;fillColor=#dae8fc;strokeColor=#6c8ebf;" parent="uR3A5j1ukMdwhLeREXGZ-2" vertex="1">
          <mxGeometry x="391" y="260" width="96" height="40" as="geometry" />
        </mxCell>
        <mxCell id="uR3A5j1ukMdwhLeREXGZ-13" style="edgeStyle=orthogonalEdgeStyle;rounded=0;orthogonalLoop=1;jettySize=auto;html=1;exitX=0.5;exitY=1;exitDx=0;exitDy=0;entryX=0.5;entryY=0;entryDx=0;entryDy=0;" parent="uR3A5j1ukMdwhLeREXGZ-2" source="uR3A5j1ukMdwhLeREXGZ-14" target="uR3A5j1ukMdwhLeREXGZ-16" edge="1">
          <mxGeometry relative="1" as="geometry" />
        </mxCell>
        <mxCell id="uR3A5j1ukMdwhLeREXGZ-17" value="与" style="rounded=0;whiteSpace=wrap;html=1;fillColor=#fff2cc;strokeColor=#d6b656;" parent="uR3A5j1ukMdwhLeREXGZ-2" vertex="1">
          <mxGeometry x="590" y="180" width="96" height="40" as="geometry" />
        </mxCell>
        <mxCell id="uR3A5j1ukMdwhLeREXGZ-18" value="CD B秒" style="rounded=0;whiteSpace=wrap;html=1;fillColor=#fff2cc;strokeColor=#d6b656;" parent="uR3A5j1ukMdwhLeREXGZ-2" vertex="1">
          <mxGeometry x="540" y="260" width="96" height="40" as="geometry" />
        </mxCell>
        <mxCell id="uR3A5j1ukMdwhLeREXGZ-19" style="edgeStyle=orthogonalEdgeStyle;rounded=0;orthogonalLoop=1;jettySize=auto;html=1;exitX=0.5;exitY=1;exitDx=0;exitDy=0;entryX=0.5;entryY=0;entryDx=0;entryDy=0;" parent="uR3A5j1ukMdwhLeREXGZ-2" source="uR3A5j1ukMdwhLeREXGZ-17" target="uR3A5j1ukMdwhLeREXGZ-18" edge="1">
          <mxGeometry relative="1" as="geometry" />
        </mxCell>
        <mxCell id="uR3A5j1ukMdwhLeREXGZ-20" value="行为B" style="rounded=0;whiteSpace=wrap;html=1;fillColor=#fff2cc;strokeColor=#d6b656;" parent="uR3A5j1ukMdwhLeREXGZ-2" vertex="1">
          <mxGeometry x="650" y="260" width="96" height="40" as="geometry" />
        </mxCell>
        <mxCell id="uR3A5j1ukMdwhLeREXGZ-21" style="edgeStyle=orthogonalEdgeStyle;rounded=0;orthogonalLoop=1;jettySize=auto;html=1;exitX=0.5;exitY=1;exitDx=0;exitDy=0;entryX=0.5;entryY=0;entryDx=0;entryDy=0;" parent="uR3A5j1ukMdwhLeREXGZ-2" source="uR3A5j1ukMdwhLeREXGZ-17" target="uR3A5j1ukMdwhLeREXGZ-20" edge="1">
          <mxGeometry relative="1" as="geometry" />
        </mxCell>
        <mxCell id="YEO7ucCBVxBHJjsweA6i-5" style="edgeStyle=orthogonalEdgeStyle;rounded=0;orthogonalLoop=1;jettySize=auto;html=1;entryX=0.5;entryY=0;entryDx=0;entryDy=0;" edge="1" parent="uR3A5j1ukMdwhLeREXGZ-2" source="YEO7ucCBVxBHJjsweA6i-1" target="YEO7ucCBVxBHJjsweA6i-2">
          <mxGeometry relative="1" as="geometry" />
        </mxCell>
        <mxCell id="YEO7ucCBVxBHJjsweA6i-6" style="edgeStyle=orthogonalEdgeStyle;rounded=0;orthogonalLoop=1;jettySize=auto;html=1;" edge="1" parent="uR3A5j1ukMdwhLeREXGZ-2" source="YEO7ucCBVxBHJjsweA6i-1" target="YEO7ucCBVxBHJjsweA6i-3">
          <mxGeometry relative="1" as="geometry" />
        </mxCell>
        <mxCell id="YEO7ucCBVxBHJjsweA6i-1" value="与" style="rounded=0;whiteSpace=wrap;html=1;fillColor=#f8cecc;strokeColor=#b85450;" vertex="1" parent="uR3A5j1ukMdwhLeREXGZ-2">
          <mxGeometry x="831" y="180" width="96" height="40" as="geometry" />
        </mxCell>
        <mxCell id="YEO7ucCBVxBHJjsweA6i-2" value="CD C秒" style="rounded=0;whiteSpace=wrap;html=1;fillColor=#f8cecc;strokeColor=#b85450;" vertex="1" parent="uR3A5j1ukMdwhLeREXGZ-2">
          <mxGeometry x="781" y="260" width="96" height="40" as="geometry" />
        </mxCell>
        <mxCell id="YEO7ucCBVxBHJjsweA6i-3" value="行为C" style="rounded=0;whiteSpace=wrap;html=1;fillColor=#f8cecc;strokeColor=#b85450;" vertex="1" parent="uR3A5j1ukMdwhLeREXGZ-2">
          <mxGeometry x="891" y="260" width="96" height="40" as="geometry" />
        </mxCell>
        <mxCell id="YEO7ucCBVxBHJjsweA6i-8" value="……" style="rounded=0;whiteSpace=wrap;html=1;fillColor=#f5f5f5;strokeColor=#666666;fontColor=#333333;" vertex="1" parent="uR3A5j1ukMdwhLeREXGZ-2">
          <mxGeometry x="1020" y="180" width="96" height="40" as="geometry" />
        </mxCell>
      </root>
    </mxGraphModel>
  </diagram>
</mxfile>
